# xmcd
#
# Track frame offsets: 
#        150
#        11890
#        25216
#        37639
#        50708
#        64724
#        75097
#        88391
#        99291
#        117244
#        129188
#        136721
#        148123
#        159776
#        169627
#        180091
#        192205
#        203261
#        213886
#        227206
#        238518
#        247420
#        259341
#        269720
#        280459
#
# Disc length: 3889 seconds
#
# Revision: 1
# Processed by: cddbd v1.5.2PL0 Copyright (c) Steve Scherf et al.
# Submitted via: ExactAudioCopyFreeDBPlugin 1.0
#
DISCID=500f2f19
DTITLE=Various Artist - Super Rare Electric Blues '60s Era CD 2
DYEAR=2015
DGENRE=Blues
TTITLE0=Gus Jinkins and Orchestra - Tricky 
TTITLE1=John Fred and His Playboy Band - Boogie Children 
TTITLE2=Buddy Guy and His Band - You Sure Can't Do  
TTITLE3=G. 'Davy' Crockett - Did You Ever Love Somebody (That Didn't L
TTITLE3=ove You) 
TTITLE4=Johnny Otis Orchestra featuring Pete 'Guitar' Lewis - Midnight
TTITLE4=In The Barrelhouse  
TTITLE5=Sly Williams - Boot Hill 
TTITLE6=Buddy Guy and His Band - This Is The End 
TTITLE7=George Smith - All Last Night 
TTITLE8=Guitar Tommy Moore - Your Car Machine 
TTITLE9=Lafayette Thomas - Cockroach Run 
TTITLE10=Benny Sharp and His Orchestra - St. Louis Sunset Twist 
TTITLE11=Lonnie Brooks - Mr. Hot Shot  
TTITLE12=Prince Charles - Come On Home 
TTITLE13=Henry Artis and The Nitehawks - I've Got The Blues So Bad  
TTITLE14=Guitar Crusher with The Jimmy Spruill Orchestra - Since My Ba
TTITLE14=by Hit The Numbers 
TTITLE15=Earl Hooker - Wild Moments  
TTITLE16=Icky Renrut and Jimmy Thomas - Jack Rabbit 
TTITLE17=Claude and The Hightones - High Sailing 
TTITLE18=Larry Dale featuring Mickey Baker and Champion Jack Dupree - Mi
TTITLE18=dnight Hours 
TTITLE19=The Poor Boys - Washboard (take 1) 
TTITLE20=Artie Wilson - Tarzan  
TTITLE21=Homesick James Williamson - Set A Date  
TTITLE22=Jimmy Mullins - Pleadin' Mercy Baby 
TTITLE23=Bob Jenkins - Nothing But Love  
TTITLE24=Jimmy Witherspoon - Endless Sleep 
EXTD=
EXTT0=
EXTT1=
EXTT2=
EXTT3=
EXTT4=
EXTT5=
EXTT6=
EXTT7=
EXTT8=
EXTT9=
EXTT10=
EXTT11=
EXTT12=
EXTT13=
EXTT14=
EXTT15=
EXTT16=
EXTT17=
EXTT18=
EXTT19=
EXTT20=
EXTT21=
EXTT22=
EXTT23=
EXTT24=
PLAYORDER=
